<svg width="690" height="690" viewBox="0 0 690 690" fill="none" xmlns="http://www.w3.org/2000/svg">
<path d="M409.093 689.92C385.859 689.92 358.348 683.29 327.624 670.024C270.004 645.149 206.359 599.535 148.411 541.592C90.4681 483.649 44.8534 420.004 19.9788 362.379C-6.70389 300.608 -6.5519 251.753 20.4006 224.819L62.0207 183.188C80.7393 164.495 111.141 164.527 129.833 183.188L206.453 259.819C215.51 268.866 220.505 280.907 220.505 293.725C220.505 306.528 215.515 318.575 206.453 327.616L180.635 353.433C172.224 361.86 183.344 405.767 233.781 456.22C284.218 506.647 328.109 517.819 336.567 509.365L362.385 483.548C381.062 464.829 411.505 464.855 430.182 483.548L506.813 560.168C525.506 578.876 525.506 609.288 506.813 627.98L465.182 669.6C451.63 683.141 432.562 689.917 409.089 689.917L409.093 689.92ZM95.9334 197.88C91.0116 197.88 86.0741 199.745 82.3294 203.489L40.7094 245.12C22.9174 262.917 24.9801 301.511 46.3501 350.995C69.8234 405.375 113.277 465.839 168.725 521.275C224.167 576.717 284.637 620.176 339.005 643.649C388.505 665.019 427.093 667.051 444.874 649.285L486.505 607.665C493.994 600.165 493.994 587.962 486.505 580.462L409.874 503.842C402.4 496.353 390.186 496.327 382.686 503.842L356.869 529.66C327.27 559.258 262.317 525.352 213.469 476.514C164.641 427.675 130.709 362.738 160.323 333.114L186.141 307.297C189.771 303.667 191.776 298.844 191.776 293.709C191.776 288.563 189.771 283.74 186.141 280.105L109.521 203.474C105.776 199.735 100.844 197.87 95.9221 197.87L95.9334 197.88Z" fill="black"/>
<path d="M472.147 656.6C468.475 656.6 464.798 655.199 461.996 652.392L337.938 528.334C332.329 522.725 332.329 513.637 337.938 508.032C343.548 502.422 352.636 502.422 358.241 508.032L482.298 632.089C487.908 637.698 487.908 646.786 482.298 652.392C479.496 655.199 475.824 656.6 472.147 656.6Z" fill="black"/>
<path d="M171.867 356.333C168.195 356.333 164.518 354.932 161.716 352.125L37.5595 227.969C31.9502 222.36 31.9502 213.272 37.5595 207.666C43.1689 202.057 52.2569 202.057 57.8622 207.666L182.018 331.822C187.628 337.432 187.628 346.52 182.018 352.125C179.216 354.932 175.544 356.333 171.867 356.333Z" fill="black"/>
<path d="M674.893 360.24C666.956 360.24 660.533 353.818 660.533 345.88C660.533 171.413 518.587 29.4667 344.12 29.4667C336.183 29.4667 329.76 23.0448 329.76 15.1067C329.76 7.16857 336.182 0.746704 344.12 0.746704C534.427 0.746704 689.253 155.573 689.253 345.88C689.253 353.818 682.831 360.24 674.893 360.24Z" fill="black"/>
<path d="M542.507 372.84C534.569 372.84 528.147 366.418 528.147 358.48C528.147 250.059 439.944 161.84 331.52 161.84C323.582 161.84 317.16 155.418 317.16 147.48C317.16 139.543 323.582 133.12 331.52 133.12C455.775 133.12 556.853 234.208 556.853 358.48C556.858 366.417 550.437 372.84 542.499 372.84H542.507Z" fill="black"/>
</svg>
